PathFileType	4	(X/Y/Z)	pose_F01_0-96.trc
DataRate	CameraRate	NumFrames	NumMarkers	Units	OrigDataRate	OrigDataStartFrame	OrigNumFrames
30	30	9	21	m	30	12	96
Frame#	Time	CHip			RHip			RKnee			RAnkle			RBigToe			RSmallToe			RHeel			LHip			LKnee			LAnkle			LBigToe			LSmallToe			LHeel			Neck			Nose			RShoulder			RElbow			RWrist			LShoulder			LElbow			LWrist			
		X1	Y1	Z1	X2	Y2	Z2	X3	Y3	Z3	X4	Y4	Z4	X5	Y5	Z5	X6	Y6	Z6	X7	Y7	Z7	X8	Y8	Z8	X9	Y9	Z9	X10	Y10	Z10	X11	Y11	Z11	X12	Y12	Z12	X13	Y13	Z13	X14	Y14	Z14	X15	Y15	Z15	X16	Y16	Z16	X17	Y17	Z17	X18	Y18	Z18	X19	Y19	Z19	X20	Y20	Z20	X21	Y21	Z21	
12	0.4	-0.25145185233363837	1.8194337773127796	-0.5538259506535883	-0.26808300166222215	1.8179744693655662	-0.4920670158633172	-0.282811685738196	1.679345002622958	-0.4972264737316487	-0.28689106122267066	1.5494944607541135	-0.48046943748321186	-0.23915218009127998	1.5195151506845488	-0.46012322552278606	-0.25300421696051567	1.523360831248647	-0.44064938331130254	-0.2936167951322783	1.5303428185431798	-0.4847178798142927	-0.23915148155876284	1.8220192054300979	-0.6057264706127731	-0.26174407883219697	1.6819530159363638	-0.6030389941747151													-0.26528897958649383	1.9826797800550235	-0.5804911251910354	-0.22590753067843286	2.0509895897852064	-0.5771163972365606	-0.28399481054138986	1.980112387089606	-0.5009784558647441	-0.2819962656854874	1.891648708981405	-0.46460141282507034	-0.27263822365614093	1.8176680371849072	-0.43806141960474215	-0.2434324705148925	1.9852729095913684	-0.6648837248644619	-0.2362060599274604	1.8942389111823272	-0.6785605762434412	-0.22189965869106582	1.8175757313418202	-0.6650699353485987
13	0.43333333333333335	-0.251442913978433	1.819642218814927	-0.5539765935453197	-0.2680346428427299	1.8175298763630834	-0.4922625636425262	-0.2828709472054575	1.6831136060613048	-0.4975485413498088	-0.28768046153267646	1.5506199703378674	-0.4842117548338919	-0.23915218009127998	1.5195151506845488	-0.46012322552278606	-0.25335322222857887	1.5248591695449631	-0.44029815492887636	-0.2936167951322783	1.5303428185431798	-0.4847178798142927	-0.2391727176747774	1.8221556085436412	-0.6058111841692787	-0.2616230194351866	1.684158603334723	-0.6034733494634701													-0.26442584401391583	1.981668053545768	-0.5855862890795923	-0.22673919952014848	2.049710268891803	-0.5795906419497872	-0.2850092516458149	1.980203293399543	-0.5039913906156402	-0.28301707441877616	1.8917216203316747	-0.4677139695251058	-0.2726093461298416	1.8182400247955754	-0.438215863104536	-0.24354385526255037	1.9841196563772754	-0.6650504063043889	-0.23615347878083512	1.894677252973162	-0.6786036293861744	-0.2243363346569061	1.8208961982475134	-0.6630360862904464
14	0.4666666666666667	-0.25137791825784367	1.8224959400837129	-0.5543269382675773	-0.26816693320276547	1.8190628111196518	-0.49240727461119677	-0.2830358284387001	1.6812027883691243	-0.4971947225513012	-0.2866198082204839	1.5506244377290848	-0.4809982548128392	-0.23915218009127998	1.5195151506845488	-0.46012322552278606	-0.2542892308262519	1.524398390116005	-0.44352129619236813	-0.29343591073420544	1.532131182637975	-0.48532096227128124	-0.23923287047232603	1.8234688274668955	-0.6059645987631633	-0.26141002018600873	1.6801797894670434	-0.6032829972698024													-0.2642709253920257	1.982761919796268	-0.5856619236217561	-0.2268195538479621	2.0486761447284167	-0.5797596239172093	-0.28306755758756696	1.9802982072544466	-0.5061566379643117	-0.2829848783821738	1.8939497620050703	-0.4681520314366237	-0.27262853527627784	1.82103160580797	-0.4384937235441753	-0.24353043356602735	1.9841149826589837	-0.6650377816525465	-0.23598648077863982	1.8946298269466908	-0.6788433661423967	-0.22184783051487422	1.8175465777855881	-0.665181569876305
15	0.5	-0.25240395418962097	1.8197949643526068	-0.5571553942387384	-0.2692333424419553	1.8161591123478082	-0.49530035207589235	-0.28258782221112083	1.680797099099091	-0.49776223379449075	-0.2866970650251123	1.5509063881758185	-0.4810467460364501	-0.23915218009127998	1.5195151506845488	-0.46012322552278606	-0.253354143991907	1.5249286301687528	-0.44030908939043095	-0.29343591073420544	1.532131182637975	-0.48532096227128124	-0.24008973914354723	1.8226375957619463	-0.6089788487332687	-0.2616340021087451	1.6811561041217025	-0.603240739078482													-0.2652537970211063	1.9841507470505597	-0.5890402340695009	-0.22470286326308275	2.0497579160847987	-0.581852040256811	-0.28311186679506073	1.9816580499994507	-0.5066253688346263	-0.28305468310429494	1.8952882992948796	-0.4685127027966184	-0.27198160969504503	1.820461579270015	-0.44389081603069686	-0.2444665535071395	1.9842514346164386	-0.6680079597066996	-0.23617070496951467	1.8948736365726273	-0.6787625169364099	-0.22274925856459946	1.8181974358073703	-0.6682570710098426
16	0.5333333333333333	-0.2528003837199899	1.8210203540770975	-0.557180521815607	-0.26946689133141616	1.8186695122196914	-0.49558004202845063	-0.2836339656880672	1.6827836610254656	-0.49662705747448116	-0.286637707272036	1.5507951833456677	-0.48099553372823034	-0.23915218009127998	1.5195151506845488	-0.46012322552278606	-0.25348846167523365	1.5255978667778407	-0.4403497648237608	-0.2932576453581702	1.5314610369049664	-0.485257843675376	-0.24046911168432492	1.8234255574823055	-0.6089813492942421	-0.2643267075617077	1.6826555406301134	-0.6003828729180498													-0.26443002628356405	1.9816649507053545	-0.5856856589558196	-0.22470285569472445	2.0497412099028565	-0.5819261407287778	-0.2830956904385123	1.9802789126939313	-0.5061509436350452	-0.2830232620262384	1.8953430155834945	-0.468603623905304	-0.2726150425113076	1.8236899726773685	-0.439189833506365	-0.24444153953206346	1.9842698872855458	-0.6680192759568196	-0.2369416223083129	1.8960836551687619	-0.6819418868264664	-0.2256729713284803	1.8197623725615868	-0.6693693581933937
17	0.5666666666666667	-0.2514589749140933	1.819697575390068	-0.5540364412729369	-0.26724531176010724	1.8163858937594621	-0.4973208731649295	-0.28281055836484437	1.6856191602203623	-0.49795478511747526	-0.286496362653395	1.5501931135335318	-0.48095702214443825	-0.23915218009127998	1.5195151506845488	-0.46012322552278606	-0.25332717576056457	1.5247296545281543	-0.4402621709904743	-0.2932576453581702	1.5314610369049664	-0.485257843675376	-0.24008700575113268	1.8223468042349664	-0.6088972462767558	-0.26158470820995183	1.683851429916718	-0.6034444267977119													-0.2643025607178008	1.9840539339124668	-0.586082432270608	-0.22471032960099283	2.0497312645141244	-0.5819496325737593	-0.2830377095658398	1.9802784282656958	-0.5062154690648059	-0.28281310353432587	1.8949830976238802	-0.46841593614767807	-0.27260156285768816	1.8205964565781714	-0.4385972285338661	-0.2444716473186553	1.9855204628072467	-0.668361634538146	-0.23601082755744937	1.8953459237661467	-0.6788499655350467	-0.22465047738354416	1.8186518547549115	-0.6662380345477933
18	0.6	-0.25244485363605546	1.81663196277295	-0.556804965404134	-0.2691315233831933	1.8144889449180828	-0.49515859537309687	-0.2833035243378122	1.6797022734078517	-0.4969036024187965	-0.28769330073669575	1.5508022909475172	-0.4841827539871664	-0.23915218009127998	1.5195151506845488	-0.46012322552278606	-0.2534311724821335	1.5252467330978612	-0.44031031374702334	-0.2932576453581702	1.5314610369049664	-0.485257843675376	-0.24012491753527568	1.8193582431876558	-0.6086576417532318	-0.26413427597842754	1.6810796491607836	-0.6005192835223027													-0.26523521218200774	1.9828309163269981	-0.58876345132944	-0.22468918824822084	2.04971630434348	-0.5819676371242696	-0.2830943710009702	1.9803141899097745	-0.5062881875319667	-0.2840872275346699	1.895597833254944	-0.47179426437506927	-0.2748660646330389	1.8228412915499048	-0.4453543106952892	-0.24445680307259118	1.984250128572686	-0.6681299998048914	-0.2348630175818692	1.895785570010725	-0.6840722884167455	-0.22129205822546563	1.816366369962536	-0.6735678625910938
19	0.6333333333333333	-0.2524989318463056	1.8238829328087802	-0.5576477254838225	-0.2693190337883873	1.8201845383238764	-0.495839407158109	-0.28330625303026064	1.6829933906112349	-0.4971895884667386	-0.2866866091908318	1.5509267816891978	-0.4810327637635232	-0.23915218009127998	1.5195151506845488	-0.46012322552278606	-0.2533352768744564	1.5249476005432676	-0.44034677161289026	-0.2932576453581702	1.5314610369049664	-0.485257843675376	-0.2403629844833421	1.8252173219138417	-0.6092538152460628	-0.2639234095598405	1.6822835235442775	-0.6009386779121233													-0.26532118358679085	1.981713639583673	-0.5887426963719969	-0.2226979987867365	2.0497863719103155	-0.5840851189608024	-0.2830744827842226	1.9802535629102829	-0.5062786165328238	-0.2831017222065371	1.895467724537473	-0.46854947567228666	-0.2740371922831726	1.821615604960701	-0.44188696762371305	-0.24443764206367233	1.9842181162900772	-0.6680858569050442	-0.23691073694128895	1.8958051309739552	-0.6819710354509442	-0.22660524503187185	1.8201483032904233	-0.6725527117450348
20	0.6666666666666666	-0.25460670471235336	1.8200604580036959	-0.5551336894570986	-0.270257510774363	1.8184481934472265	-0.49876190334574366	-0.28366758385902235	1.6825941870291188	-0.4966865744742932	-0.2866534790456147	1.5507274950473717	-0.4810419476963001	-0.23915218009127998	1.5195151506845488	-0.46012322552278606	-0.25328956724872265	1.524723876288347	-0.44024625964991	-0.2932576453581702	1.5314610369049664	-0.485257843675376	-0.24228499981801432	1.823231541643683	-0.6069804555600992	-0.26194478877164834	1.6803899283757713	-0.6027243852668895													-0.2643089942219335	1.9827543209806124	-0.5856180077875129	-0.22264565765894348	2.049781098601463	-0.584067647445921	-0.28205547782245965	1.9801513043236465	-0.5031489614737302	-0.2850882763114613	1.892478815922164	-0.4658313967792039	-0.2698755408164586	1.8195088427007202	-0.4283747455861118	-0.24640740419854626	1.9853383717703545	-0.6658760387297524	-0.23798789880152468	1.8949376563172833	-0.6850746079724143	-0.21789411130142283	1.8167867436316507	-0.6813880202262539
